<?xml version="1.0" standalone="no"?>
<!DOCTYPE svg PUBLIC "-//W3C//DTD SVG 20010904//EN"
 "http://www.w3.org/TR/2001/REC-SVG-20010904/DTD/svg10.dtd">
<svg version="1.0" xmlns="http://www.w3.org/2000/svg"
 width="512.000000pt" height="512.000000pt" viewBox="0 0 512.000000 512.000000"
 preserveAspectRatio="xMidYMid meet">
<metadata>
Created by potrace 1.14, written by Peter Selinger 2001-2017
</metadata>
<g transform="translate(0.000000,512.000000) scale(0.100000,-0.100000)"
fill="#000000" stroke="none">
<path d="M1678 5115 c-2 -1 -28 -6 -58 -9 -120 -14 -267 -61 -388 -123 -356
-182 -600 -514 -666 -906 -16 -90 -23 -325 -12 -358 3 -8 8 -32 11 -54 25
-176 112 -382 226 -536 234 -315 584 -496 974 -504 242 -6 448 45 649 160 566
323 787 1021 512 1617 -168 365 -537 642 -936 703 -44 7 -306 15 -312 10z
m232 -485 c0 -60 3 -70 18 -71 9 0 24 -2 32 -4 8 -1 44 -5 80 -9 76 -7 114
-13 155 -26 17 -5 48 -14 71 -19 l41 -11 -1 -129 c-1 -71 -4 -132 -8 -136 -4
-4 -28 0 -55 9 -64 20 -237 53 -290 55 l-43 1 0 -153 0 -152 101 -22 c171 -37
285 -106 334 -202 51 -101 52 -239 3 -341 -50 -102 -182 -186 -343 -219 l-90
-18 -3 -70 -3 -71 -109 -1 -110 -2 0 71 0 70 -52 1 c-29 0 -66 2 -83 5 -16 2
-46 6 -65 8 -64 7 -163 29 -209 47 l-46 17 0 123 c-1 68 1 129 3 136 3 9 14 8
45 -3 113 -41 304 -72 395 -65 9 1 12 38 12 151 0 83 -4 150 -8 150 -37 0
-218 48 -268 70 -79 37 -157 114 -183 184 -37 98 -23 247 32 336 63 103 208
185 362 205 28 4 53 9 58 12 4 2 7 35 7 74 l0 69 110 0 110 0 0 -70z"/>
<path d="M1609 4270 c-70 -21 -106 -72 -95 -133 10 -52 61 -90 149 -111 l27
-6 0 130 0 130 -27 -1 c-16 0 -40 -4 -54 -9z"/>
<path d="M1910 3581 l0 -129 48 14 c67 20 86 32 105 64 21 35 21 63 1 106 -12
26 -28 38 -70 54 -88 32 -84 37 -84 -109z"/>
<path d="M3446 4188 c1 -18 5 -127 9 -243 4 -115 8 -244 10 -285 8 -216 18
-517 17 -534 -1 -13 52 33 153 134 l153 153 241 -241 c291 -291 338 -356 401
-552 26 -82 38 -137 46 -213 l7 -69 34 54 c54 87 151 288 176 368 64 200 58
370 -20 560 -62 152 -136 258 -297 425 l-125 130 152 153 152 152 -35 1 c-19
0 -64 2 -100 4 -36 2 -150 6 -254 9 -103 4 -234 9 -290 11 -55 2 -176 7 -267
10 l-165 6 2 -33z"/>
<path d="M592 2693 c-237 -406 -266 -662 -113 -978 69 -142 135 -227 319 -412
l72 -73 -145 -145 c-80 -80 -145 -150 -145 -155 0 -6 26 -10 58 -11 31 0 102
-2 157 -4 296 -12 688 -26 830 -29 l50 -1 -1 40 c-4 120 -15 433 -19 520 -2
55 -7 188 -10 295 -6 174 -10 242 -14 247 0 1 -68 -65 -150 -147 l-148 -148
-243 242 c-133 133 -260 268 -282 301 -84 125 -150 310 -164 460 -3 33 -7 61
-9 63 -2 2 -21 -27 -43 -65z"/>
<path d="M3205 2493 c-251 -46 -369 -89 -525 -188 -285 -181 -485 -471 -557
-805 -25 -118 -25 -382 0 -500 111 -516 512 -898 1037 -986 87 -15 340 -9 430
10 475 100 843 447 965 908 31 121 37 168 39 313 1 107 -3 154 -28 285 -12 59
-64 206 -97 272 -118 238 -330 449 -568 568 -113 56 -234 95 -361 114 -78 12
-288 18 -335 9z m490 -477 c96 -23 121 -30 131 -38 7 -5 11 -56 11 -143 l1
-135 -27 7 c-14 3 -30 8 -36 12 -12 6 -9 6 -105 21 -41 7 -118 10 -170 8 -78
-4 -107 -10 -160 -35 -62 -29 -132 -90 -159 -142 -11 -20 -10 -21 31 -21 24
-1 129 -2 233 -3 l190 -2 0 -110 0 -110 -250 0 c-137 0 -254 -3 -260 -7 -8 -5
-12 -118 -6 -149 0 -3 85 -6 189 -7 103 0 196 -1 207 -1 19 -1 20 -7 19 -98
-1 -54 -2 -104 -3 -110 -1 -10 -44 -13 -181 -13 l-181 0 15 -27 c32 -61 107
-110 205 -133 102 -24 320 -10 423 26 l38 13 0 -138 0 -139 -27 -10 c-25 -10
-68 -19 -168 -37 -53 -9 -254 -6 -318 5 -253 44 -413 165 -493 373 l-26 67
-89 0 -90 0 3 112 3 112 70 0 70 -1 0 82 0 81 -72 -1 -73 -1 0 113 0 113 93 0
92 0 19 52 c32 90 77 160 150 234 99 98 199 151 343 178 70 14 304 15 358 2z"/>
</g>
</svg>
